<?xml version="1.0" encoding="UTF-8"?>
<svg version="1.1" xmlns="http://www.w3.org/2000/svg" width="793" height="315">
<path d="M0 0 C1.67461304 0.00422974 1.67461304 0.00422974 3.38305664 0.00854492 C12.03860801 0.17836064 18.09092206 1.71623152 25.875 5.5 C28.52095332 6.28769923 31.16812002 6.98256213 33.8515625 7.62890625 C36.55747317 8.79380602 37.48364829 9.907832 38.875 12.5 C39.3671875 15.5234375 39.3671875 15.5234375 38.875 18.5 C29.48512942 27.53284128 15.12246348 30.42996915 2.875 33.5 C3.968125 34.11875 5.06125 34.7375 6.1875 35.375 C8.4912256 36.67899562 10.66662049 38.02774699 12.875 39.5 C12.875 40.16 12.875 40.82 12.875 41.5 C13.74382812 41.7371875 14.61265625 41.974375 15.5078125 42.21875 C19.25203383 43.64346531 21.68238745 45.43949955 24.75 48 C25.71679688 48.7940625 26.68359375 49.588125 27.6796875 50.40625 C28.76636719 51.44265625 28.76636719 51.44265625 29.875 52.5 C29.875 53.16 29.875 53.82 29.875 54.5 C30.431875 54.685625 30.98875 54.87125 31.5625 55.0625 C34.49080417 56.88279719 35.86225758 59.0855761 37.7265625 61.94140625 C38.80746934 63.65572515 38.80746934 63.65572515 40.875 64.5 C42.45048683 67.12581138 42.875 68.37099787 42.875 71.5 C43.535 71.5 44.195 71.5 44.875 71.5 C50.20304086 80.60526867 53.79263786 89.42171479 56.875 99.5 C57.22691406 100.51835938 57.57882812 101.53671875 57.94140625 102.5859375 C64.94370173 124.44247487 61.77130889 153.33661342 53.875 174.5 C52.79686212 177.68678505 51.75266639 180.88198045 50.7265625 184.0859375 C47.01277693 195.55845979 47.01277693 195.55845979 44.6875 200 C42.85058931 203.54713788 41.83744252 206.6502299 40.875 210.5 C40.215 210.5 39.555 210.5 38.875 210.5 C38.67003906 211.19867188 38.46507812 211.89734375 38.25390625 212.6171875 C37.98449219 213.52726563 37.71507812 214.43734375 37.4375 215.375 C37.17066406 216.27992188 36.90382813 217.18484375 36.62890625 218.1171875 C35.875 220.5 35.875 220.5 34.875 222.5 C34.895625 223.7375 34.91625 224.975 34.9375 226.25 C34.99937318 230.01738912 34.28436774 232.97658065 32.875 236.5 C31.12785767 236.75002209 29.37700859 236.97423194 27.625 237.1875 C26.16320312 237.37892578 26.16320312 237.37892578 24.671875 237.57421875 C21.37334337 237.48668788 20.18094277 236.81143311 17.875 234.5 C17.875 233.84 17.875 233.18 17.875 232.5 C17.2975 232.4175 16.72 232.335 16.125 232.25 C13.875 231.5 13.875 231.5 12.1875 229.6875 C7.36719581 225.12775279 0.93946821 223.47009306 -5.3125 221.625 C-15.59350415 218.51902919 -25.11351242 215.57050942 -32.3984375 207.37109375 C-34.06136845 205.56895817 -35.644302 204.33662953 -37.6875 203 C-41.11470182 200.67135949 -43.59415861 197.89950967 -46.23828125 194.7265625 C-47.5651097 193.16074011 -48.94306207 191.63752476 -50.35546875 190.1484375 C-55.11626373 185.124483 -58.58413416 180.27411949 -61.71875 174.109375 C-63.43379918 170.92700596 -65.47759198 168.16921003 -67.73046875 165.3515625 C-71.56831249 160.25593804 -72.96402335 155.73023208 -74.1875 149.5625 C-75.38987428 143.501814 -75.38987428 143.501814 -77.171875 137.59765625 C-78.56133092 133.08192452 -78.91393026 128.57030785 -79.3125 123.875 C-79.39854492 122.86824219 -79.48458984 121.86148438 -79.57324219 120.82421875 C-80.08768618 114.01904256 -80.20788006 107.31599278 -79.875 100.5 C-79.83656982 99.69481934 -79.79813965 98.88963867 -79.75854492 98.06005859 C-79.44971187 93.27744267 -78.6043588 89.05933531 -77.125 84.5 C-76.465 84.5 -75.805 84.5 -75.125 84.5 C-74.135 80.21 -73.145 75.92 -72.125 71.5 C-71.465 71.5 -70.805 71.5 -70.125 71.5 C-69.856875 70.819375 -69.58875 70.13875 -69.3125 69.4375 C-68.46561721 67.3425794 -67.58704095 65.26035524 -66.6875 63.1875 C-65.59167533 60.64893129 -64.58317936 58.09360591 -63.625 55.5 C-59.80147059 45.17647059 -59.80147059 45.17647059 -58.125 43.5 C-57.9309999 41.59162943 -57.74175305 39.68262075 -57.58007812 37.77124023 C-56.91276929 30.17742457 -56.22767385 24.49564177 -51.125 18.5 C-50.465 18.5 -49.805 18.5 -49.125 18.5 C-49.125 17.84 -49.125 17.18 -49.125 16.5 C-45.15641908 12.67768128 -40.34833871 12.34054586 -35.12109375 11.34375 C-31.9980328 10.46424392 -31.22576824 9.80672591 -29.125 7.5 C-26.890625 6.4375 -26.890625 6.4375 -24.375 5.5 C-21.49342029 4.41261143 -18.79434891 3.32836432 -16.0546875 1.90625 C-10.91687465 -0.30044619 -5.50414706 -0.03073111 0 0 Z " fill="#F3CD15" transform="translate(366.125,6.5)"/>
<path d="M0 0 C4.45949094 0.68175671 6.06964877 2.62424663 8.70703125 6.1171875 C10.30336301 8.12977792 11.97257012 9.66243718 13.9375 11.3125 C26.57647564 22.14938663 33.60054678 30.04154658 35.25 47.0625 C35.52650162 50.99967958 35.7450051 54.93886314 35.90893555 58.88232422 C36.07304052 62.70356542 36.35589598 66.33829814 37.25 70.0625 C33.0963663 71.25880595 31.03665138 70.89845023 27.1875 69 C26.22585938 68.53335938 25.26421875 68.06671875 24.2734375 67.5859375 C22.77683594 66.83183594 22.77683594 66.83183594 21.25 66.0625 C20.27289063 65.58039063 19.29578125 65.09828125 18.2890625 64.6015625 C16.28851935 63.60916708 14.29375545 62.60504336 12.3046875 61.58984375 C10.24697394 60.56098697 8.16759791 59.57448825 6.0703125 58.62890625 C-0.79809613 55.46875315 -5.35967507 52.24769306 -9.75 46.0625 C-10.348125 45.2375 -10.94625 44.4125 -11.5625 43.5625 C-16.38996223 33.39942161 -15.27722381 23.43592206 -11.75 13.0625 C-5.70931142 0.09515519 -5.70931142 0.09515519 0 0 Z " fill="#4B5E54" transform="translate(330.75,22.9375)"/>
<path d="M0 0 C0.77666016 -0.03287109 1.55332031 -0.06574219 2.35351562 -0.09960938 C4.62109375 -0.12109375 4.62109375 -0.12109375 8.5625 0.4375 C11.68869482 3.869165 12.70643641 8.48747813 14.0625 12.875 C15.53637943 17.61518644 17.22532416 22.04170706 19.5625 26.4375 C22.54791105 19.54564684 24.72241957 12.60640079 26.6328125 5.34375 C27.5625 2.4375 27.5625 2.4375 29.5625 0.4375 C31.44189453 0.21044922 31.44189453 0.21044922 33.6953125 0.2421875 C34.90380859 0.25185547 34.90380859 0.25185547 36.13671875 0.26171875 C37.39935547 0.28685547 37.39935547 0.28685547 38.6875 0.3125 C39.96173828 0.32603516 39.96173828 0.32603516 41.26171875 0.33984375 C43.36209884 0.36344353 45.46233444 0.39931517 47.5625 0.4375 C48.44090996 3.53470845 48.55685406 5.34395403 47.5625 8.4375 C46.2425 8.7675 44.9225 9.0975 43.5625 9.4375 C43.62308594 10.05157715 43.68367187 10.6656543 43.74609375 11.29833984 C44.02319207 14.1359332 44.29287847 16.97418684 44.5625 19.8125 C44.65789063 20.77800781 44.75328125 21.74351562 44.8515625 22.73828125 C45.43926281 28.99309168 45.68664553 35.156081 45.5625 41.4375 C47.2125 41.7675 48.8625 42.0975 50.5625 42.4375 C50.60504356 44.43704746 50.60330783 46.43791636 50.5625 48.4375 C48.94049485 50.05950515 47.14226969 49.5674075 44.90625 49.5703125 C43.49666016 49.57224609 43.49666016 49.57224609 42.05859375 49.57421875 C41.06988281 49.57035156 40.08117187 49.56648438 39.0625 49.5625 C38.07378906 49.56636719 37.08507812 49.57023437 36.06640625 49.57421875 C35.12667969 49.57292969 34.18695312 49.57164062 33.21875 49.5703125 C32.35056641 49.56918457 31.48238281 49.56805664 30.58789062 49.56689453 C28.5625 49.4375 28.5625 49.4375 27.5625 48.4375 C27.52169217 46.43791636 27.51995644 44.43704746 27.5625 42.4375 C29.2125 41.7775 30.8625 41.1175 32.5625 40.4375 C32.42165204 38.64543453 32.27466299 36.85385083 32.125 35.0625 C32.04378906 34.06476563 31.96257813 33.06703125 31.87890625 32.0390625 C31.71284374 29.45822387 31.71284374 29.45822387 30.5625 27.4375 C30.15257812 28.62988281 29.74265625 29.82226562 29.3203125 31.05078125 C28.77626431 32.61726484 28.2319812 34.18366686 27.6875 35.75 C27.41808594 36.53568359 27.14867187 37.32136719 26.87109375 38.13085938 C26.60683594 38.88818359 26.34257813 39.64550781 26.0703125 40.42578125 C25.82941895 41.12227783 25.58852539 41.81877441 25.34033203 42.53637695 C24.5625 44.4375 24.5625 44.4375 22.5625 47.4375 C20.50390625 47.90625 20.50390625 47.90625 18.125 47.9375 C17.34253906 47.9684375 16.56007813 47.999375 15.75390625 48.03125 C13.5625 47.4375 13.5625 47.4375 11.9765625 45.45703125 C10.16718226 41.59335466 8.74549524 37.66203907 7.375 33.625 C7.10236328 32.83673828 6.82972656 32.04847656 6.54882812 31.23632812 C5.88168274 29.30511779 5.22139582 27.37154049 4.5625 25.4375 C3.9025 30.7175 3.2425 35.9975 2.5625 41.4375 C4.2125 41.4375 5.8625 41.4375 7.5625 41.4375 C8.5625 42.4375 8.5625 42.4375 8.75 44.875 C8.5625 47.4375 8.5625 47.4375 6.5625 49.4375 C4.68310547 49.66455078 4.68310547 49.66455078 2.4296875 49.6328125 C1.62402344 49.62636719 0.81835938 49.61992187 -0.01171875 49.61328125 C-1.27435547 49.58814453 -1.27435547 49.58814453 -2.5625 49.5625 C-3.83673828 49.54896484 -3.83673828 49.54896484 -5.13671875 49.53515625 C-7.23709884 49.51155647 -9.33733444 49.47568483 -11.4375 49.4375 C-11.4375 46.7975 -11.4375 44.1575 -11.4375 41.4375 C-10.1175 41.4375 -8.7975 41.4375 -7.4375 41.4375 C-7.39991577 40.51638428 -7.39991577 40.51638428 -7.36157227 39.57666016 C-7.24404736 36.73847366 -7.12204474 33.9004956 -7 31.0625 C-6.96068359 30.09699219 -6.92136719 29.13148438 -6.88085938 28.13671875 C-6.60769178 21.87487688 -6.13426872 15.66652691 -5.4375 9.4375 C-7.0875 9.1075 -8.7375 8.7775 -10.4375 8.4375 C-10.5625 5.5625 -10.5625 5.5625 -10.4375 2.4375 C-7.42310023 -0.57689977 -4.03636757 0.02999778 0 0 Z " fill="#546660" transform="translate(529.4375,250.5625)"/>
<path d="M0 0 C4.12556667 0.03152726 6.15784539 0.06715681 9.296875 2.81640625 C11.3555683 5.71092903 13.14829591 8.68225261 14.9375 11.75 C16.37425622 13.76555641 17.83203067 15.76633 19.3125 17.75 C21.23965334 20.39119821 23.12361567 23.02917351 24.9375 25.75 C25.2675 20.47 25.5975 15.19 25.9375 9.75 C23.4625 9.255 23.4625 9.255 20.9375 8.75 C20.89508277 6.41705225 20.89657063 4.08297433 20.9375 1.75 C22.8230253 -0.1355253 25.51518831 0.61753311 28.01953125 0.61328125 C28.81746094 0.61714844 29.61539063 0.62101563 30.4375 0.625 C31.63439453 0.61919922 31.63439453 0.61919922 32.85546875 0.61328125 C38.81089233 0.62339233 38.81089233 0.62339233 39.9375 1.75 C40.1875 5.1875 40.1875 5.1875 39.9375 8.75 C38.9475 9.41 37.9575 10.07 36.9375 10.75 C36.5360853 13.48015124 36.5360853 13.48015124 36.6796875 16.68359375 C36.69386719 17.89080078 36.70804688 19.09800781 36.72265625 20.34179688 C36.75230469 21.61087891 36.78195312 22.87996094 36.8125 24.1875 C36.96522776 32.78966649 36.94510628 41.19637073 35.9375 49.75 C32.87398302 49.99184661 29.99225322 50.18639332 26.9375 49.75 C24.375 47.375 24.375 47.375 22.9375 44.75 C22.9375 44.09 22.9375 43.43 22.9375 42.75 C22.2775 42.75 21.6175 42.75 20.9375 42.75 C19.18674221 40.51127762 17.54848791 38.27343246 15.9375 35.9375 C15.48632812 35.29490234 15.03515625 34.65230469 14.5703125 33.99023438 C12.66021892 31.26354753 10.78429755 28.52019633 8.9375 25.75 C8.6075 31.03 8.2775 36.31 7.9375 41.75 C9.5875 42.08 11.2375 42.41 12.9375 42.75 C12.98004356 44.74954746 12.97830783 46.75041636 12.9375 48.75 C11.4154041 50.2720959 10.05539918 49.87959521 7.9375 49.8828125 C7.133125 49.88410156 6.32875 49.88539063 5.5 49.88671875 C4.654375 49.88285156 3.80875 49.87898438 2.9375 49.875 C2.091875 49.87886719 1.24625 49.88273437 0.375 49.88671875 C-0.429375 49.88542969 -1.23375 49.88414062 -2.0625 49.8828125 C-2.805 49.88168457 -3.5475 49.88055664 -4.3125 49.87939453 C-6.0625 49.75 -6.0625 49.75 -7.0625 48.75 C-7.10330783 46.75041636 -7.10504356 44.74954746 -7.0625 42.75 C-5.7425 42.09 -4.4225 41.43 -3.0625 40.75 C-3.0625 30.52 -3.0625 20.29 -3.0625 9.75 C-4.3825 9.42 -5.7025 9.09 -7.0625 8.75 C-7.10491723 6.41705225 -7.10342937 4.08297433 -7.0625 1.75 C-5.19447739 -0.11802261 -2.52156163 0.1968613 0 0 Z " fill="#556761" transform="translate(671.0625,250.25)"/>
<path d="M0 0 C1.67461304 0.00422974 1.67461304 0.00422974 3.38305664 0.00854492 C12.03860801 0.17836064 18.09092206 1.71623152 25.875 5.5 C28.52095332 6.28769923 31.16812002 6.98256213 33.8515625 7.62890625 C36.55747317 8.79380602 37.48364829 9.907832 38.875 12.5 C39.3671875 15.5234375 39.3671875 15.5234375 38.875 18.5 C28.37570095 28.60008616 13.23095328 30.94052733 -0.66796875 31.69140625 C-4.47061862 31.48086405 -7.22789562 30.61231311 -10.75 29.1875 C-11.83539063 28.75824219 -12.92078125 28.32898438 -14.0390625 27.88671875 C-18.9635482 25.67381695 -22.65639883 23.23442906 -26.4375 19.375 C-27.13488281 18.67117187 -27.83226562 17.96734375 -28.55078125 17.2421875 C-30.125 15.5 -30.125 15.5 -30.125 14.5 C-19.88506428 13.46354352 -9.65629611 13.18709548 0.625 12.9375 C2.30469562 12.89419383 3.98438323 12.85057623 5.6640625 12.80664062 C9.73429183 12.70084214 13.80460567 12.599239 17.875 12.5 C14.41739094 12.15886618 10.95882414 11.82856609 7.5 11.5 C6.53449219 11.40460937 5.56898438 11.30921875 4.57421875 11.2109375 C-4.61653868 10.3473764 -13.41710293 10.18972046 -22.5625 11.5 C-29.82601351 12.5 -29.82601351 12.5 -33.125 12.5 C-30.19966207 7.71308339 -26.92305953 6.31297528 -21.85546875 4.4921875 C-19.01429612 3.52592753 -19.01429612 3.52592753 -16.05859375 1.9140625 C-10.91922472 -0.30095474 -5.50851955 -0.03075552 0 0 Z " fill="#4D6057" transform="translate(366.125,6.5)"/>
<path d="M0 0 C5.28250814 3.38080521 9.70398962 8.14922493 12.125 14 C13.86146608 22.74272924 13.64573231 31.38282703 9.2890625 39.28125 C6.34566769 43.62720207 1.92453347 46.13351476 -2.875 48 C-9.27352671 49.19727034 -15.8377097 49.82080583 -21.875 47 C-27.40267712 43.20736841 -31.83614291 38.83267838 -33.5234375 32.18359375 C-34.80377115 24.23129919 -34.31823462 17.26905086 -30.875 10 C-30.483125 9.113125 -30.09125 8.22625 -29.6875 7.3125 C-22.93064534 -1.30831456 -10.10773691 -3.60001588 0 0 Z M-17.875 11 C-20.3315996 14.62070254 -20.1746723 18.09054855 -20.1875 22.375 C-20.20425781 23.66148437 -20.22101562 24.94796875 -20.23828125 26.2734375 C-19.85186898 30.23727951 -18.95035189 32.62755318 -16.875 36 C-14.12600827 38.22891222 -12.30350707 38.93003966 -8.8125 39.5 C-5.70082232 39.25609037 -5.70082232 39.25609037 -3.5625 36.75 C-0.33419641 31.48906081 -0.3587455 26.04108333 -0.875 20 C-1.93826851 15.63693268 -3.38674652 11.9515991 -6.875 9 C-11.60347147 7.56089999 -14.01404099 7.88978302 -17.875 11 Z " fill="#566962" transform="translate(631.875,252)"/>
<path d="M0 0 C1.51815699 0.00015911 3.0363194 0.00585313 4.55444336 0.01586914 C5.35208603 0.01728409 6.1497287 0.01869904 6.97154236 0.02015686 C9.52916146 0.02577223 12.08669429 0.03832727 14.64428711 0.05102539 C16.37410356 0.05603841 18.10392137 0.06060166 19.83374023 0.06469727 C24.08312264 0.07574664 28.33244023 0.09302153 32.58178711 0.11352539 C33.92664764 3.99384456 34.87532478 7.2423799 34.89428711 11.36352539 C34.91104492 12.21430664 34.92780273 13.06508789 34.94506836 13.94165039 C34.82518555 14.65836914 34.70530273 15.37508789 34.58178711 16.11352539 C31.58178711 18.11352539 31.58178711 18.11352539 29.08178711 18.05102539 C25.76772565 16.80825234 25.04281454 15.26626879 23.58178711 12.11352539 C23.58178711 11.45352539 23.58178711 10.79352539 23.58178711 10.11352539 C20.28178711 10.11352539 16.98178711 10.11352539 13.58178711 10.11352539 C13.60241211 11.20665039 13.62303711 12.29977539 13.64428711 13.42602539 C13.58178711 17.11352539 13.58178711 17.11352539 12.58178711 20.11352539 C13.56920898 20.02973633 14.55663086 19.94594727 15.57397461 19.85961914 C17.4959668 19.70686523 17.4959668 19.70686523 19.45678711 19.55102539 C20.73295898 19.44661133 22.00913086 19.34219727 23.32397461 19.23461914 C26.58178711 19.11352539 26.58178711 19.11352539 28.58178711 20.11352539 C27.70678711 27.98852539 27.70678711 27.98852539 26.58178711 29.11352539 C24.39539258 29.18611485 22.20678322 29.19726322 20.01928711 29.17602539 C18.22297852 29.16249023 18.22297852 29.16249023 16.39038086 29.14868164 C15.46354492 29.13708008 14.53670898 29.12547852 13.58178711 29.11352539 C13.58178711 32.08352539 13.58178711 35.05352539 13.58178711 38.11352539 C17.21178711 38.11352539 20.84178711 38.11352539 24.58178711 38.11352539 C25.57178711 36.13352539 26.56178711 34.15352539 27.58178711 32.11352539 C30.22178711 32.11352539 32.86178711 32.11352539 35.58178711 32.11352539 C35.63649063 33.82149097 35.67489429 35.52998164 35.70678711 37.23852539 C35.72999023 38.18985352 35.75319336 39.14118164 35.77709961 40.12133789 C35.56271635 43.40568949 34.66790869 46.02052173 33.58178711 49.11352539 C28.33073269 49.13817467 23.07971166 49.15636107 17.82861328 49.16845703 C16.0408469 49.17349757 14.25308466 49.18032993 12.46533203 49.18896484 C9.90127543 49.20104269 7.33727314 49.20675633 4.77319336 49.21118164 C3.56694054 49.21892357 3.56694054 49.21892357 2.33631897 49.2268219 C0.41776996 49.22701754 -1.50066657 49.17554522 -3.41821289 49.11352539 C-4.41821289 48.11352539 -4.41821289 48.11352539 -4.48071289 45.05102539 C-4.46008789 44.08165039 -4.43946289 43.11227539 -4.41821289 42.11352539 C-1.94321289 41.61852539 -1.94321289 41.61852539 0.58178711 41.11352539 C0.58178711 30.55352539 0.58178711 19.99352539 0.58178711 9.11352539 C-1.06821289 8.78352539 -2.71821289 8.45352539 -4.41821289 8.11352539 C-4.46063012 5.78057764 -4.45914226 3.44649972 -4.41821289 1.11352539 C-3.41821289 0.11352539 -3.41821289 0.11352539 0 0 Z " fill="#566962" transform="translate(315.418212890625,250.886474609375)"/>
<path d="M0 0 C11.55 0 23.1 0 35 0 C38.77419355 10.06451613 38.77419355 10.06451613 38 15 C35.58840352 17.14364131 34.10764347 17.96742225 30.875 18.0625 C29 17 29 17 27.9375 14 C26.33498543 10.75724348 26.33498543 10.75724348 23.3671875 10.3828125 C20.568979 10.14664657 17.80766709 10.00953367 15 10 C15 12.97 15 15.94 15 19 C19.95 19 24.9 19 30 19 C31 23 31 23 30 29 C25.05 29 20.1 29 15 29 C15 32.3 15 35.6 15 39 C19.07606335 38.98718219 23.00589874 38.85243235 27 38 C29.33414647 35.04150073 29.33414647 35.04150073 31 32 C34.75 31.625 34.75 31.625 38 32 C39.3594276 36.68247284 39.01717454 41.27677213 38 46 C37.34 46.99 36.68 47.98 36 49 C33.16272675 49.26667539 30.54616955 49.34791234 27.7109375 49.29296875 C26.89251373 49.28872391 26.07408997 49.28447906 25.23086548 49.28010559 C22.61191164 49.26328679 19.99372198 49.22562974 17.375 49.1875 C15.6015736 49.17245726 13.82813516 49.15876814 12.0546875 49.14648438 C7.7028297 49.11337292 3.35154449 49.06156952 -1 49 C-1 46.36 -1 43.72 -1 41 C0.32 41 1.64 41 3 41 C3 30.44 3 19.88 3 9 C1.68 8.67 0.36 8.34 -1 8 C-1.625 6.25 -1.625 6.25 -2 4 C-1.34 2.68 -0.68 1.36 0 0 Z " fill="#566962" transform="translate(461,251)"/>
<path d="M0 0 C12.87 0 25.74 0 39 0 C40.87912469 4.69781173 41.22365258 6.92919738 41.125 11.8125 C41.10695312 12.97394531 41.08890625 14.13539063 41.0703125 15.33203125 C41.04710937 16.21246094 41.02390625 17.09289062 41 18 C35.86051502 19.38412017 35.86051502 19.38412017 33 18 C30 12.96428571 30 12.96428571 30 10 C28.68 10 27.36 10 26 10 C26 20.23 26 30.46 26 41 C27.65 41 29.3 41 31 41 C31.92091738 43.57856865 32.18506902 44.5943287 31.0234375 47.140625 C30.68570313 47.75421875 30.34796875 48.3678125 30 49 C26.52085059 49.02887814 23.04173169 49.04675687 19.5625 49.0625 C18.07266602 49.07506836 18.07266602 49.07506836 16.55273438 49.08789062 C15.60849609 49.09111328 14.66425781 49.09433594 13.69140625 49.09765625 C12.81685791 49.10289307 11.94230957 49.10812988 11.04125977 49.11352539 C9 49 9 49 8 48 C7.95919217 46.00041636 7.95745644 43.99954746 8 42 C10.475 41.505 10.475 41.505 13 41 C13 30.77 13 20.54 13 10 C9.02622683 10.52359666 9.02622683 10.52359666 7.734375 12.84765625 C7.40953125 13.57855469 7.0846875 14.30945313 6.75 15.0625 C6.41484375 15.79597656 6.0796875 16.52945312 5.734375 17.28515625 C5.49203125 17.85105469 5.2496875 18.41695313 5 19 C2.69 18.67 0.38 18.34 -2 18 C-2.05460198 16.1253321 -2.09306244 14.25019095 -2.125 12.375 C-2.14820313 11.33085937 -2.17140625 10.28671875 -2.1953125 9.2109375 C-2 6 -2 6 0 0 Z " fill="#667771" transform="translate(196,251)"/>
<path d="M0 0 C1.64510941 0.00015915 3.29022379 0.00585551 4.93530273 0.01586914 C6.23164894 0.01799156 6.23164894 0.01799156 7.55418396 0.02015686 C10.32578941 0.025773 13.09731528 0.0383282 15.86889648 0.05102539 C17.74324428 0.05603831 19.61759334 0.06060158 21.49194336 0.06469727 C26.09679192 0.07574767 30.70158069 0.09302309 35.30639648 0.11352539 C37.4634034 4.00957249 37.5141419 6.89527301 37.43139648 11.36352539 C37.41334961 12.62680664 37.39530273 13.89008789 37.37670898 15.19165039 C37.35350586 16.15586914 37.33030273 17.12008789 37.30639648 18.11352539 C34.66639648 18.11352539 32.02639648 18.11352539 29.30639648 18.11352539 C26.30639648 12.36352539 26.30639648 12.36352539 26.30639648 10.11352539 C24.98639648 10.11352539 23.66639648 10.11352539 22.30639648 10.11352539 C22.30639648 20.34352539 22.30639648 30.57352539 22.30639648 41.11352539 C23.95639648 41.11352539 25.60639648 41.11352539 27.30639648 41.11352539 C27.30639648 43.75352539 27.30639648 46.39352539 27.30639648 49.11352539 C19.71639648 49.11352539 12.12639648 49.11352539 4.30639648 49.11352539 C4.30639648 46.80352539 4.30639648 44.49352539 4.30639648 42.11352539 C6.78139648 41.61852539 6.78139648 41.61852539 9.30639648 41.11352539 C9.30115967 40.28103271 9.29592285 39.44854004 9.29052734 38.59082031 C9.27347423 35.49902604 9.26094083 32.40725575 9.25146484 29.31542969 C9.24396919 27.32037771 9.23126303 25.32534754 9.21850586 23.33032227 C9.2152832 22.07670898 9.21206055 20.8230957 9.20874023 19.53149414 C9.20350342 18.37415771 9.1982666 17.21682129 9.19287109 16.02441406 C9.30639648 13.11352539 9.30639648 13.11352539 10.30639648 10.11352539 C8.65639648 10.11352539 7.00639648 10.11352539 5.30639648 10.11352539 C4.99702148 11.06227539 4.68764648 12.01102539 4.36889648 12.98852539 C3.30639648 16.11352539 3.30639648 16.11352539 2.30639648 18.11352539 C-0.00360352 18.11352539 -2.31360352 18.11352539 -4.69360352 18.11352539 C-4.72044664 15.30096258 -4.74036539 12.48865298 -4.75610352 9.67602539 C-4.76448242 8.87358398 -4.77286133 8.07114258 -4.78149414 7.24438477 C-4.79011782 5.20057318 -4.74588501 3.15668637 -4.69360352 1.11352539 C-3.69360352 0.11352539 -3.69360352 0.11352539 0 0 Z " fill="#576963" transform="translate(140.693603515625,250.886474609375)"/>
<path d="M0 0 C1.33708008 -0.00193359 1.33708008 -0.00193359 2.70117188 -0.00390625 C3.63380859 -0.00003906 4.56644531 0.00382813 5.52734375 0.0078125 C6.46384766 0.00394531 7.40035156 0.00007812 8.36523438 -0.00390625 C9.70038086 -0.00197266 9.70038086 -0.00197266 11.0625 0 C11.88242432 0.00112793 12.70234863 0.00225586 13.54711914 0.00341797 C15.46484375 0.1328125 15.46484375 0.1328125 16.46484375 1.1328125 C16.50577312 3.46578683 16.50726098 5.79986475 16.46484375 8.1328125 C14.48484375 8.4628125 12.50484375 8.7928125 10.46484375 9.1328125 C10.46484375 19.0328125 10.46484375 28.9328125 10.46484375 39.1328125 C15.41484375 38.6378125 15.41484375 38.6378125 20.46484375 38.1328125 C22.37390972 35.17830564 23.48767347 33.334139 24.46484375 30.1328125 C26.7977915 30.09039527 29.13186942 30.09188313 31.46484375 30.1328125 C31.79484375 30.4628125 32.12484375 30.7928125 32.46484375 31.1328125 C32.42661904 33.40571232 32.30882628 35.6774836 32.15234375 37.9453125 C32.07371094 39.18925781 31.99507813 40.43320312 31.9140625 41.71484375 C31.46484375 45.1328125 31.46484375 45.1328125 29.46484375 49.1328125 C17.58484375 49.1328125 5.70484375 49.1328125 -6.53515625 49.1328125 C-6.53515625 46.4928125 -6.53515625 43.8528125 -6.53515625 41.1328125 C-5.54515625 41.1328125 -4.55515625 41.1328125 -3.53515625 41.1328125 C-3.54039307 40.44767578 -3.54562988 39.76253906 -3.55102539 39.05664062 C-3.5719707 35.91537413 -3.58487185 32.77412239 -3.59765625 29.6328125 C-3.60603516 28.55515625 -3.61441406 27.4775 -3.62304688 26.3671875 C-3.6408751 20.51952868 -3.42621588 14.91417579 -2.53515625 9.1328125 C-3.85515625 8.8028125 -5.17515625 8.4728125 -6.53515625 8.1328125 C-6.53515625 5.8228125 -6.53515625 3.5128125 -6.53515625 1.1328125 C-4.15076916 -0.05938104 -2.65859623 0.00365228 0 0 Z " fill="#5C6D68" transform="translate(409.53515625,250.8671875)"/>
<path d="M0 0 C1.40958984 -0.00193359 1.40958984 -0.00193359 2.84765625 -0.00390625 C3.83636719 -0.00003906 4.82507813 0.00382813 5.84375 0.0078125 C7.32681641 0.00201172 7.32681641 0.00201172 8.83984375 -0.00390625 C9.77957031 -0.00261719 10.71929687 -0.00132812 11.6875 0 C12.55568359 0.00112793 13.42386719 0.00225586 14.31835938 0.00341797 C16.34375 0.1328125 16.34375 0.1328125 17.34375 1.1328125 C17.38467937 3.46578683 17.38616723 5.79986475 17.34375 8.1328125 C15.36375 8.4628125 13.38375 8.7928125 11.34375 9.1328125 C11.34375 19.0328125 11.34375 28.9328125 11.34375 39.1328125 C16.29375 38.6378125 16.29375 38.6378125 21.34375 38.1328125 C23.25281597 35.17830564 24.36657972 33.334139 25.34375 30.1328125 C27.98375 30.1328125 30.62375 30.1328125 33.34375 30.1328125 C33.22983368 32.73789886 33.10309452 35.34126796 32.96875 37.9453125 C32.92234375 39.05229492 32.92234375 39.05229492 32.875 40.18164062 C32.67028852 43.95174365 32.47941173 45.92931991 30.34375 49.1328125 C27.57746085 49.3995741 25.03755369 49.48085439 22.2734375 49.42578125 C21.47720978 49.42153641 20.68098206 49.41729156 19.86062622 49.41291809 C17.31299271 49.39610084 14.76614511 49.35844429 12.21875 49.3203125 C10.49350099 49.30526955 8.76823961 49.29158046 7.04296875 49.27929688 C2.80959218 49.24618751 -1.42319559 49.19438535 -5.65625 49.1328125 C-5.65625 46.4928125 -5.65625 43.8528125 -5.65625 41.1328125 C-4.33625 41.1328125 -3.01625 41.1328125 -1.65625 41.1328125 C-1.65625 30.5728125 -1.65625 20.0128125 -1.65625 9.1328125 C-2.97625 8.8028125 -4.29625 8.4728125 -5.65625 8.1328125 C-5.69866723 5.79986475 -5.69717937 3.46578683 -5.65625 1.1328125 C-4.03424485 -0.48919265 -2.23601969 0.002905 0 0 Z " fill="#5C6D67" transform="translate(44.65625,250.8671875)"/>
<path d="M0 0 C0.8146875 0.00410889 1.629375 0.00821777 2.46875 0.01245117 C3.7990625 0.01535156 3.7990625 0.01535156 5.15625 0.01831055 C6.5484375 0.03667969 6.5484375 0.03667969 7.96875 0.05541992 C8.896875 0.05606445 9.825 0.05670898 10.78125 0.05737305 C17.68800626 0.10254805 17.68800626 0.10254805 19.96875 1.24291992 C20.09375 4.11791992 20.09375 4.11791992 19.96875 7.24291992 C19.30875 7.90291992 18.64875 8.56291992 17.96875 9.24291992 C16.31875 9.24291992 14.66875 9.24291992 12.96875 9.24291992 C12.96875 19.14291992 12.96875 29.04291992 12.96875 39.24291992 C17.91875 38.74791992 17.91875 38.74791992 22.96875 38.24291992 C25.52068133 34.5678744 25.52068133 34.5678744 26.7421875 31.98901367 C27.14695312 31.41280273 27.55171875 30.8365918 27.96875 30.24291992 C31.78125 29.74291992 31.78125 29.74291992 34.96875 30.24291992 C35.02354286 32.09674512 35.06189594 33.95105872 35.09375 35.80541992 C35.11695313 36.83795898 35.14015625 37.87049805 35.1640625 38.93432617 C34.94731012 42.60611156 34.02257191 45.72957248 32.96875 49.24291992 C27.86011104 49.26757002 22.75150641 49.28575599 17.64282227 49.29785156 C15.90355832 49.30289196 14.16429864 49.30972422 12.42504883 49.31835938 C9.93049063 49.33043784 7.43598827 49.336151 4.94140625 49.34057617 C4.15911148 49.34573746 3.37681671 49.35089874 2.57081604 49.35621643 C0.70307886 49.35641218 -1.16454204 49.30491687 -3.03125 49.24291992 C-4.03125 48.24291992 -4.03125 48.24291992 -4.09375 45.18041992 C-4.073125 44.21104492 -4.0525 43.24166992 -4.03125 42.24291992 C-1.55625 41.74791992 -1.55625 41.74791992 0.96875 41.24291992 C0.96875 30.68291992 0.96875 20.12291992 0.96875 9.24291992 C-0.68125 8.91291992 -2.33125 8.58291992 -4.03125 8.24291992 C-4.15625 5.36791992 -4.15625 5.36791992 -4.03125 2.24291992 C-2.03125 0.24291992 -2.03125 0.24291992 0 0 Z " fill="#576963" transform="translate(258.03125,250.757080078125)"/>
<path d="M0 0 C1.23157837 0.00616333 1.23157837 0.00616333 2.48803711 0.01245117 C3.37942383 0.01438477 4.27081055 0.01631836 5.18920898 0.01831055 C6.1218457 0.03055664 7.05448242 0.04280273 8.01538086 0.05541992 C9.42013672 0.05638672 9.42013672 0.05638672 10.85327148 0.05737305 C17.81268862 0.10272768 17.81268862 0.10272768 18.95288086 1.24291992 C18.99381023 3.57589425 18.99529809 5.90997217 18.95288086 8.24291992 C17.30288086 8.57291992 15.65288086 8.90291992 13.95288086 9.24291992 C13.95288086 19.80291992 13.95288086 30.36291992 13.95288086 41.24291992 C15.60288086 41.24291992 17.25288086 41.24291992 18.95288086 41.24291992 C18.99529809 43.57586768 18.99381023 45.90994559 18.95288086 48.24291992 C17.95288086 49.24291992 17.95288086 49.24291992 15.91162109 49.35644531 C14.59979858 49.34859009 14.59979858 49.34859009 13.26147461 49.34057617 C12.31723633 49.33735352 11.37299805 49.33413086 10.40014648 49.33081055 C9.40692383 49.32243164 8.41370117 49.31405273 7.39038086 49.30541992 C6.39329102 49.3009082 5.39620117 49.29639648 4.36889648 49.29174805 C1.89683237 49.27991999 -0.57511432 49.26343841 -3.04711914 49.24291992 C-4.25487494 45.61965253 -3.59023042 44.60145623 -2.04711914 41.24291992 C-1.05711914 41.24291992 -0.06711914 41.24291992 0.95288086 41.24291992 C0.95288086 30.68291992 0.95288086 20.12291992 0.95288086 9.24291992 C-0.69711914 8.91291992 -2.34711914 8.58291992 -4.04711914 8.24291992 C-4.17211914 5.36791992 -4.17211914 5.36791992 -4.04711914 2.24291992 C-2.04711914 0.24291992 -2.04711914 0.24291992 0 0 Z " fill="#5D6F69" transform="translate(99.047119140625,250.757080078125)"/>
<path d="M0 0 C5.445 1.485 5.445 1.485 11 3 C9.68 3.33 8.36 3.66 7 4 C7.24556641 5.33224609 7.24556641 5.33224609 7.49609375 6.69140625 C8.31302746 12.40994221 8.10509035 18.174698 8.0625 23.9375 C8.05798828 25.09830078 8.05347656 26.25910156 8.04882812 27.45507812 C8.03710647 30.30343934 8.0206976 33.15169222 8 36 C9.65 36 11.3 36 13 36 C13.92091738 38.57856865 14.18506902 39.5943287 13.0234375 42.140625 C12.51683594 43.06101562 12.51683594 43.06101562 12 44 C8.52085059 44.02887814 5.04173169 44.04675687 1.5625 44.0625 C0.07266602 44.07506836 0.07266602 44.07506836 -1.44726562 44.08789062 C-2.39150391 44.09111328 -3.33574219 44.09433594 -4.30859375 44.09765625 C-5.18314209 44.10289307 -6.05769043 44.10812988 -6.95874023 44.11352539 C-9 44 -9 44 -10 43 C-10.125 40 -10.125 40 -10 37 C-9 36 -9 36 -6.4375 35.9375 C-5.633125 35.958125 -4.82875 35.97875 -4 36 C-4.01047363 35.20303711 -4.02094727 34.40607422 -4.03173828 33.58496094 C-4.07331772 29.97333938 -4.09933261 26.36176821 -4.125 22.75 C-4.14175781 21.49574219 -4.15851563 20.24148438 -4.17578125 18.94921875 C-4.18222656 17.74394531 -4.18867188 16.53867187 -4.1953125 15.296875 C-4.20578613 14.18666992 -4.21625977 13.07646484 -4.22705078 11.93261719 C-4.00253798 9.03278082 -3.60137144 7.40170583 -2 5 C-1.34 4.67 -0.68 4.34 0 4 C0 2.68 0 1.36 0 0 Z " fill="#4D615B" transform="translate(214,256)"/>
<path d="M0 0 C3.82850752 3.40311779 5.25002269 5.72565934 5.875 10.8125 C6.28004363 18.99929086 5.67122748 26.04820691 1 33 C-2.64791234 36.84509679 -5.72155051 37.80081323 -11 38 C-11.66 37.34 -12.32 36.68 -13 36 C-13 35.01 -13 34.02 -13 33 C-13.66 32.67 -14.32 32.34 -15 32 C-14.34 32 -13.68 32 -13 32 C-9.15231541 24.85430005 -7.54977883 17.6324719 -9.60546875 9.6484375 C-10.69703879 6.60090692 -11.69448467 4.30551533 -14 2 C-14 1.01 -14 0.02 -14 -1 C-8.89962252 -2.70012583 -4.89250882 -2.24239988 0 0 Z " fill="#52655F" transform="translate(639,260)"/>
<path d="M0 0 C4.45476041 0.68103352 6.06649532 2.61800054 8.69921875 6.109375 C10.33165153 8.16533568 12.05842248 9.74569491 14.0625 11.4375 C18.71789975 15.3905377 22.9786641 19.70217793 27.25 24.0625 C24.29335481 25.5408226 21.50770263 25.12282783 18.25 25.0625 C18.91 23.7425 19.57 22.4225 20.25 21.0625 C17.94 22.3825 15.63 23.7025 13.25 25.0625 C12.44668135 31.22127634 14.34686273 34.43666479 17.66015625 39.57421875 C19.81171909 42.94165248 21.52106629 46.46631788 23.25 50.0625 C23.8275 51.2175 24.405 52.3725 25 53.5625 C25.61875 54.8 25.61875 54.8 26.25 56.0625 C20.84380496 54.16302607 18.52238408 51.89436915 15.875 46.875 C14.31370381 43.97080323 12.7006271 41.181946 10.875 38.4375 C5.23432883 29.4840537 0.47107135 19.65342495 -0.75 9.0625 C0.24 8.7325 1.23 8.4025 2.25 8.0625 C2.58 8.7225 2.91 9.3825 3.25 10.0625 C4.57 9.4025 5.89 8.7425 7.25 8.0625 C6.755 7.60875 6.26 7.155 5.75 6.6875 C4.25 5.0625 4.25 5.0625 4.25 3.0625 C1.61 3.0625 -1.03 3.0625 -3.75 3.0625 C-4.20375 4.196875 -4.6575 5.33125 -5.125 6.5 C-6.75 10.0625 -6.75 10.0625 -8.75 11.0625 C-9.15729228 13.38406597 -9.49438677 15.7193787 -9.75 18.0625 C-10.74 18.3925 -11.73 18.7225 -12.75 19.0625 C-12.20829987 14.54164461 -11.04789011 11.26952308 -8.8125 7.3125 C-8.28785156 6.36890625 -7.76320313 5.4253125 -7.22265625 4.453125 C-4.52594035 0.07543234 -4.52594035 0.07543234 0 0 Z " fill="#4E614B" transform="translate(330.75,22.9375)"/>
<path d="M0 0 C0.99580078 0.07863281 1.99160156 0.15726563 3.01757812 0.23828125 C4.43393555 0.36396484 4.43393555 0.36396484 5.87890625 0.4921875 C6.73170166 0.56550293 7.58449707 0.63881836 8.46313477 0.71435547 C9.44044556 0.91762451 9.44044556 0.91762451 10.4375 1.125 C10.9325 2.115 10.9325 2.115 11.4375 3.125 C10.37426514 3.15005615 9.31103027 3.1751123 8.21557617 3.20092773 C4.22150284 3.29603083 0.22756247 3.39598799 -3.76635742 3.49731445 C-5.48572653 3.54027857 -7.20512785 3.58197537 -8.92456055 3.62231445 C-18.16945968 3.84006288 -27.366178 4.06832406 -36.5625 5.125 C-30.52006558 12.10736866 -25.37596165 15.54773015 -16.5625 18.125 C-15.79035156 18.48464844 -15.01820313 18.84429687 -14.22265625 19.21484375 C-10.71668086 20.41439186 -7.40482975 20.34093356 -3.75 20.25 C-3.05712891 20.24097656 -2.36425781 20.23195313 -1.65039062 20.22265625 C0.04572395 20.19926157 1.74165871 20.16339641 3.4375 20.125 C3.4375 20.455 3.4375 20.785 3.4375 21.125 C0.7975 21.785 -1.8425 22.445 -4.5625 23.125 C-3.5725 24.115 -2.5825 25.105 -1.5625 26.125 C-2.31015625 25.96902344 -3.0578125 25.81304687 -3.828125 25.65234375 C-4.81296875 25.45769531 -5.7978125 25.26304688 -6.8125 25.0625 C-7.78703125 24.86527344 -8.7615625 24.66804688 -9.765625 24.46484375 C-12.430619 24.14102465 -14.05121723 24.26996801 -16.5625 25.125 C-15.9025 25.455 -15.2425 25.785 -14.5625 26.125 C-14.5625 27.775 -14.5625 29.425 -14.5625 31.125 C-16.90308081 29.13301633 -19.2349285 27.13210876 -21.5625 25.125 C-22.3771875 24.42890625 -23.191875 23.7328125 -24.03125 23.015625 C-24.8459375 22.30921875 -25.660625 21.6028125 -26.5 20.875 C-27.27214844 20.20984375 -28.04429687 19.5446875 -28.83984375 18.859375 C-30.5625 17.125 -30.5625 17.125 -30.5625 15.125 C-31.14 14.898125 -31.7175 14.67125 -32.3125 14.4375 C-34.5625 13.125 -34.5625 13.125 -36.25 10.5625 C-39.28821929 7.36005264 -41.46603883 7.42269204 -45.734375 7.16796875 C-46.33765625 7.15378906 -46.9409375 7.13960937 -47.5625 7.125 C-47.5625 6.135 -47.5625 5.145 -47.5625 4.125 C-49.8725 4.785 -52.1825 5.445 -54.5625 6.125 C-51.94261575 2.19517363 -50.10005394 2.10813669 -45.5625 1.125 C-42.25 1 -42.25 1 -39.5625 1.125 C-35.70804115 1.125 -31.84613222 0.37882459 -28.03125 -0.1640625 C-18.63916201 -1.40922568 -9.4072064 -0.8454498 0 0 Z " fill="#D4BF38" transform="translate(373.5625,16.875)"/>
<path d="M0 0 C6.59411082 5.65209499 7.15255102 13.87107195 8 22 C8.28300199 25.93668437 8.49514412 29.87593699 8.65869141 33.81933594 C8.82318722 37.64070027 9.10585867 41.27564271 10 45 C5.8463663 46.19630595 3.78665138 45.83595023 -0.0625 43.9375 C-1.01640625 43.47472656 -1.9703125 43.01195312 -2.953125 42.53515625 C-3.95859375 42.02855469 -4.9640625 41.52195313 -6 41 C-7.04671875 40.48308594 -8.0934375 39.96617188 -9.171875 39.43359375 C-12.12183358 37.96962177 -15.06179706 36.48738904 -18 35 C-19.99953423 33.99906901 -21.99940933 32.99881779 -24 32 C-21.39417629 31.06934867 -20.35801776 30.85082593 -17.75 31.9375 C-16.88375 32.4634375 -16.88375 32.4634375 -16 33 C-15.67 31.68 -15.34 30.36 -15 29 C-14.01 29 -13.02 29 -12 29 C-11.90021879 25.50765756 -12.22157062 22.40562852 -13 19 C-11 20.8125 -11 20.8125 -9 23 C-9 23.99 -9 24.98 -9 26 C-8.01 26.33 -7.02 26.66 -6 27 C-5.319375 27.7734375 -5.319375 27.7734375 -4.625 28.5625 C-3.03935737 30.21793608 -3.03935737 30.21793608 -0.5 30.4375 C2.06571002 30.22321428 2.06571002 30.22321428 3.66796875 28.44140625 C5.56047049 24.97274471 5.13915598 22.40449971 4.8125 18.5 C4.66748047 16.53546875 4.66748047 16.53546875 4.51953125 14.53125 C4.06086526 11.41370069 3.53750473 9.66265187 2 7 C1.30269194 4.6756398 0.63087848 2.34326294 0 0 Z " fill="#4E604F" transform="translate(358,48)"/>
<path d="M0 0 C-0.76247387 5.18482231 -2.99624874 9.23339779 -5.5625 13.75 C-10.17730818 24.18347937 -9.48740979 34.16200022 -7 45 C-7.66 45 -8.32 45 -9 45 C-9.2475 43.9275 -9.495 42.855 -9.75 41.75 C-11.00916475 37.97250575 -11.83014363 36.33077674 -15 34 C-16.32 34 -17.64 34 -19 34 C-19.103125 34.886875 -19.20625 35.77375 -19.3125 36.6875 C-20.01190702 40.0573702 -21.08742511 42.17271538 -23 45 C-23.6875 43.3125 -23.6875 43.3125 -24 41 C-23.05988318 39.29883624 -22.05104383 37.63495707 -21 36 C-20.31039038 34.00779443 -19.63920943 32.00894394 -19 30 C-18.67 29.67 -18.34 29.34 -18 29 C-17.8059999 27.09162943 -17.61675305 25.18262075 -17.45507812 23.27124023 C-16.78776929 15.67742457 -16.10267385 9.99564177 -11 4 C-10.34 4 -9.68 4 -9 4 C-9 3.34 -9 2.68 -9 2 C-5.62902617 0.50178941 -3.79557881 0 0 0 Z " fill="#F1CF28" transform="translate(326,21)"/>
<path d="M0 0 C1.14662109 0.25330078 1.14662109 0.25330078 2.31640625 0.51171875 C4.68387599 1.40551488 5.75191326 2.46222949 7.4375 4.3125 C9.53739652 5.48824711 9.53739652 5.48824711 11.4375 6.3125 C10.4475 6.9725 9.4575 7.6325 8.4375 8.3125 C7.90125 7.920625 7.365 7.52875 6.8125 7.125 C4.26630601 5.95911496 4.26630601 5.95911496 1.1875 7.6875 C0.28 8.22375 -0.6275 8.76 -1.5625 9.3125 C-1.0629551 11.31151916 -0.56312479 13.31008461 -0.04711914 15.30493164 C1.37161245 21.13884795 1.82036695 26.7607712 2 32.75 C2.216164 39.00955748 2.57082009 45.1785238 3.33178711 51.39868164 C3.36667236 52.0302417 3.40155762 52.66180176 3.4375 53.3125 C2.4375 54.3125 2.4375 54.3125 0.37109375 54.41015625 C-0.45261719 54.39855469 -1.27632813 54.38695312 -2.125 54.375 C-2.95128906 54.36597656 -3.77757812 54.35695312 -4.62890625 54.34765625 C-5.26699219 54.33605469 -5.90507812 54.32445312 -6.5625 54.3125 C-6.5625 53.6525 -6.5625 52.9925 -6.5625 52.3125 C-8.5425 51.6525 -10.5225 50.9925 -12.5625 50.3125 C-8.38124785 48.91874928 -6.50738851 50.58228574 -2.5625 52.3125 C-1.2425 52.3125 0.0775 52.3125 1.4375 52.3125 C1.20353516 51.33796875 1.20353516 51.33796875 0.96484375 50.34375 C0.29775579 46.50922961 0.16130793 42.69287454 0 38.8125 C-0.56679559 23.8318545 -0.56679559 23.8318545 -5.6796875 9.9609375 C-6.82912219 7.81464795 -7.21043229 5.70656042 -7.5625 3.3125 C-7.8925 2.6525 -8.2225 1.9925 -8.5625 1.3125 C-5.37096929 -0.62859043 -3.61986181 -0.86362185 0 0 Z " fill="#E5C725" transform="translate(365.5625,40.6875)"/>
<path d="M0 0 C3.85447373 3.56722525 6.37307334 6.9786155 8.9375 11.625 C9.44953979 12.54587402 9.44953979 12.54587402 9.97192383 13.48535156 C10.98910995 15.31937978 11.99489224 17.15933296 13 19 C13.55171875 19.99257813 14.1034375 20.98515625 14.671875 22.0078125 C17.94371306 27.92747827 21.01370519 33.9321031 24 40 C24.60320135 41.20881551 25.2072022 42.4172329 25.8125 43.625 C26.204375 44.40875 26.59625 45.1925 27 46 C21.59380496 44.10052607 19.27238408 41.83186915 16.625 36.8125 C15.06370381 33.90830323 13.4506271 31.119446 11.625 28.375 C6.16762801 19.72982977 1.59952139 10.13030211 0 0 Z " fill="#E1C62E" transform="translate(330,33)"/>
<path d="M0 0 C0.99580078 0.07863281 1.99160156 0.15726563 3.01757812 0.23828125 C4.43393555 0.36396484 4.43393555 0.36396484 5.87890625 0.4921875 C6.73170166 0.56550293 7.58449707 0.63881836 8.46313477 0.71435547 C9.44044556 0.91762451 9.44044556 0.91762451 10.4375 1.125 C10.9325 2.115 10.9325 2.115 11.4375 3.125 C-4.7325 3.455 -20.9025 3.785 -37.5625 4.125 C-37.5625 4.785 -37.5625 5.445 -37.5625 6.125 C-38.2225 6.125 -38.8825 6.125 -39.5625 6.125 C-39.5625 5.465 -39.5625 4.805 -39.5625 4.125 C-42.2025 5.115 -44.8425 6.105 -47.5625 7.125 C-47.5625 6.135 -47.5625 5.145 -47.5625 4.125 C-49.8725 4.785 -52.1825 5.445 -54.5625 6.125 C-51.94261575 2.19517363 -50.10005394 2.10813669 -45.5625 1.125 C-42.25 1 -42.25 1 -39.5625 1.125 C-35.70804115 1.125 -31.84613222 0.37882459 -28.03125 -0.1640625 C-18.63916201 -1.40922568 -9.4072064 -0.8454498 0 0 Z " fill="#E8CA36" transform="translate(373.5625,16.875)"/>
<path d="M0 0 C4.20230505 2.68947523 7.07125742 6.09232333 10.125 10 C9.795 10.66 9.465 11.32 9.125 12 C8.5475 11.34 7.97 10.68 7.375 10 C5.12846023 7.55709077 5.12846023 7.55709077 1.125 8 C1.125 7.34 1.125 6.68 1.125 6 C0.465 6 -0.195 6 -0.875 6 C-1.205 6.66 -1.535 7.32 -1.875 8 C-1.875 7.34 -1.875 6.68 -1.875 6 C-3.525 6.33 -5.175 6.66 -6.875 7 C-6.875 7.66 -6.875 8.32 -6.875 9 C-9.845 9 -12.815 9 -15.875 9 C-16.205 8.01 -16.535 7.02 -16.875 6 C-17.865 5.67 -18.855 5.34 -19.875 5 C-19.875 4.34 -19.875 3.68 -19.875 3 C-20.535 2.34 -21.195 1.68 -21.875 1 C-15.36502981 -2.0371794 -6.83919232 -2.40926093 0 0 Z " fill="#586A64" transform="translate(631.875,252)"/>
<path d="M0 0 C0.33 0 0.66 0 1 0 C1.33 2.64 1.66 5.28 2 8 C5.10540926 9.21081851 5.10540926 9.21081851 9 9 C8.67 6.36 8.34 3.72 8 1 C8.66 1 9.32 1 10 1 C10 3.31 10 5.62 10 8 C10.804375 7.979375 11.60875 7.95875 12.4375 7.9375 C15 8 15 8 16 9 C16.1875 11.4375 16.1875 11.4375 16 14 C14 16 14 16 12.12060547 16.22705078 C11.37697754 16.21657715 10.63334961 16.20610352 9.8671875 16.1953125 C9.06152344 16.18886719 8.25585938 16.18242187 7.42578125 16.17578125 C6.58402344 16.15902344 5.74226562 16.14226562 4.875 16.125 C3.60076172 16.11146484 3.60076172 16.11146484 2.30078125 16.09765625 C0.20040116 16.07405647 -1.89983444 16.03818483 -4 16 C-4 13.36 -4 10.72 -4 8 C-2.68 8 -1.36 8 0 8 C0 5.36 0 2.72 0 0 Z " fill="#60706A" transform="translate(522,284)"/>
<path d="M0 0 C1 2 1 2 0.75 3.9375 C0 6 0 6 -1.48046875 7.24609375 C-3.62713946 9.72387048 -3.66288824 11.90482755 -4.0625 15.125 C-4.47265625 18.3828125 -4.47265625 18.3828125 -5 21 C-5.66 21.33 -6.32 21.66 -7 22 C-7.33 22.99 -7.66 23.98 -8 25 C-8.66 25 -9.32 25 -10 25 C-10.15457298 41.02406534 -9.68503035 56.99105928 -9 73 C-11.61620046 68.34482956 -11.75004274 63.74262508 -12.1875 58.5 C-12.31656738 56.97632813 -12.31656738 56.97632813 -12.44824219 55.421875 C-12.96062053 48.58449436 -13.08500824 41.8479053 -12.75 35 C-12.71156982 34.19498047 -12.67313965 33.38996094 -12.63354492 32.56054688 C-12.32476508 27.77774415 -11.47941447 23.55950688 -10 19 C-9.34 19 -8.68 19 -8 19 C-7.01 14.71 -6.02 10.42 -5 6 C-4.34 6 -3.68 6 -3 6 C-2.690625 5.195625 -2.38125 4.39125 -2.0625 3.5625 C-1 1 -1 1 0 0 Z " fill="#EDD04B" transform="translate(299,72)"/>
<path d="M0 0 C4.44136567 0.67898576 6.05976839 2.59943755 8.67578125 6.08984375 C10.93230318 8.9174953 13.63814662 11.0893904 16.41796875 13.38671875 C18.32169971 15.1280846 19.76812062 16.9566714 21.25 19.0625 C19.93 19.3925 18.61 19.7225 17.25 20.0625 C17.25 19.0725 17.25 18.0825 17.25 17.0625 C16.26 17.0625 15.27 17.0625 14.25 17.0625 C14.25 16.0725 14.25 15.0825 14.25 14.0625 C13.26 13.7325 12.27 13.4025 11.25 13.0625 C10.92 12.4025 10.59 11.7425 10.25 11.0625 C8.6 11.0625 6.95 11.0625 5.25 11.0625 C5.25 11.7225 5.25 12.3825 5.25 13.0625 C5.91 13.0625 6.57 13.0625 7.25 13.0625 C7.58 16.0325 7.91 19.0025 8.25 22.0625 C4.88834831 17.98049438 1.62341938 13.80933876 -0.75 9.0625 C0.24 8.7325 1.23 8.4025 2.25 8.0625 C2.58 8.7225 2.91 9.3825 3.25 10.0625 C4.57 9.4025 5.89 8.7425 7.25 8.0625 C6.755 7.60875 6.26 7.155 5.75 6.6875 C4.25 5.0625 4.25 5.0625 4.25 3.0625 C1.61 3.0625 -1.03 3.0625 -3.75 3.0625 C-4.20375 4.196875 -4.6575 5.33125 -5.125 6.5 C-6.75 10.0625 -6.75 10.0625 -8.75 11.0625 C-9.15729228 13.38406597 -9.49438677 15.7193787 -9.75 18.0625 C-10.74 18.3925 -11.73 18.7225 -12.75 19.0625 C-12.20829987 14.54164461 -11.04789011 11.26952308 -8.8125 7.3125 C-8.28785156 6.36890625 -7.76320313 5.4253125 -7.22265625 4.453125 C-4.52594035 0.07543234 -4.52594035 0.07543234 0 0 Z " fill="#526145" transform="translate(330.75,22.9375)"/>
<path d="M0 0 C0.33 0 0.66 0 1 0 C5.64887965 23.16138252 7.13146066 51.97330214 -3 74 C-3.99 74.495 -3.99 74.495 -5 75 C-5.46753114 67.70131948 -5.12651243 64.12724572 -1 58 C-0.5187922 54.85970425 -0.31390509 51.78227689 -0.17578125 48.609375 C0 46 0 46 1 44 C1.09777423 41.81945029 1.13077473 39.63586472 1.1328125 37.453125 C1.13376923 36.80430359 1.13472595 36.15548218 1.13571167 35.48699951 C1.13639262 34.11177473 1.13454426 32.73654674 1.13037109 31.36132812 C1.12505612 29.27206028 1.13030089 27.18301083 1.13671875 25.09375 C1.13605728 23.75520786 1.13477469 22.41666586 1.1328125 21.078125 C1.13168457 19.86543945 1.13055664 18.65275391 1.12939453 17.40332031 C1.00675016 14.17754196 0.5836835 11.17003978 0 8 C-0.11196073 5.32189925 -0.04625299 2.68267314 0 0 Z " fill="#EED559" transform="translate(423,107)"/>
<path d="M0 0 C2 1.8125 2 1.8125 4 4 C4 4.99 4 5.98 4 7 C4.99 7.33 5.98 7.66 7 8 C7.33 8.99 7.66 9.98 8 11 C6.35 11 4.7 11 3 11 C3.33 12.98 3.66 14.96 4 17 C4.99 17.33 5.98 17.66 7 18 C7.66 18.99 8.32 19.98 9 21 C9.99 21.144375 10.98 21.28875 12 21.4375 C12.99 21.623125 13.98 21.80875 15 22 C16.1875 24.03515625 16.1875 24.03515625 17 26 C15.58034858 25.57228451 14.1643776 25.13234457 12.75 24.6875 C11.96109375 24.44386719 11.1721875 24.20023438 10.359375 23.94921875 C8 23 8 23 6.1171875 21.5859375 C3.38269779 19.53759281 0.49754039 18.31550597 -2.625 16.9375 C-8.7806841 14.2193159 -8.7806841 14.2193159 -11 12 C-5.25 12.875 -5.25 12.875 -3 14 C-2.67 12.68 -2.34 11.36 -2 10 C-1.01 10 -0.02 10 1 10 C1.09978121 6.50765756 0.77842938 3.40562852 0 0 Z " fill="#546446" transform="translate(345,67)"/>
<path d="M0 0 C0.99128906 0.32742187 1.98257812 0.65484375 3.00390625 0.9921875 C7.01822678 2.13913622 10.75860244 2.19896279 14.9375 2.125 C15.62134766 2.11597656 16.30519531 2.10695312 17.00976562 2.09765625 C18.67333287 2.07438958 20.33671631 2.03853167 22 2 C22 2.33 22 2.66 22 3 C19.36 3.66 16.72 4.32 14 5 C14.99 5.99 15.98 6.98 17 8 C16.25234375 7.84402344 15.5046875 7.68804687 14.734375 7.52734375 C13.74953125 7.33269531 12.7646875 7.13804688 11.75 6.9375 C10.28820312 6.64166016 10.28820312 6.64166016 8.796875 6.33984375 C6.131881 6.01602465 4.51128277 6.14496801 2 7 C2.66 7.33 3.32 7.66 4 8 C4 9.65 4 11.3 4 13 C-3.48291572 6.84965831 -3.48291572 6.84965831 -6 3 C-5.21625 3.350625 -4.4325 3.70125 -3.625 4.0625 C-2.325625 4.5265625 -2.325625 4.5265625 -1 5 C-0.34 4.67 0.32 4.34 1 4 C0.67 2.68 0.34 1.36 0 0 Z " fill="#DCC842" transform="translate(355,35)"/>
<path d="M0 0 C0.76730942 -0.00191345 1.53461884 -0.0038269 2.32518005 -0.00579834 C3.94994433 -0.00715779 5.57471956 -0.00347806 7.19946289 0.00488281 C9.65081155 0.01548324 12.10141001 0.0050333 14.55273438 -0.0078125 C22.94084021 -0.0142193 30.91988866 0.26571997 39.12109375 2.265625 C39.12109375 2.595625 39.12109375 2.925625 39.12109375 3.265625 C24.38478802 3.43831608 24.38478802 3.43831608 19.80859375 2.765625 C10.90566103 1.55844768 2.39836505 2.61922192 -6.4375 3.828125 C-9.87890625 4.265625 -9.87890625 4.265625 -12.87890625 4.265625 C-10.37508974 -0.74200803 -4.92702535 -0.02723854 0 0 Z " fill="#596136" transform="translate(345.87890625,14.734375)"/>
<path d="M0 0 C2.97 0.99 5.94 1.98 9 3 C9.04254356 4.99954746 9.04080783 7.00041636 9 9 C8.67 9.33 8.34 9.66 8 10 C6.30858344 9.91036938 4.62040398 9.75422324 2.9375 9.5625 C2.01839844 9.46066406 1.09929688 9.35882813 0.15234375 9.25390625 C-0.55792969 9.17011719 -1.26820313 9.08632813 -2 9 C-3 6 -3 6 -1.5625 2.8125 C-1.046875 1.884375 -0.53125 0.95625 0 0 Z " fill="#4D5F59" transform="translate(675,290)"/>
<path d="M0 0 C0.99 0 1.98 0 3 0 C2.34 1.98 1.68 3.96 1 6 C2.65 5.67 4.3 5.34 6 5 C5.67 5.99 5.34 6.98 5 8 C3.35 8.33 1.7 8.66 0 9 C0 9.66 0 10.32 0 11 C0.680625 11.103125 1.36125 11.20625 2.0625 11.3125 C5.62915989 12.14725019 8.66222194 13.49472754 12 15 C8.99880151 16.29700035 7.79815793 15.93380699 4.6171875 14.890625 C3.36461982 14.3557018 2.11728485 13.80838783 0.875 13.25 C0.24207031 12.98445312 -0.39085937 12.71890625 -1.04296875 12.4453125 C-4.42943602 10.96418244 -5.9022667 10.14659995 -8 7 C-6.35 7 -4.7 7 -3 7 C-2.690625 6.21625 -2.38125 5.4325 -2.0625 4.625 C-1 2 -1 2 0 0 Z " fill="#F1CF28" transform="translate(346,210)"/>
<path d="M0 0 C1.32 0.99 2.64 1.98 4 3 C0.04 3 -3.92 3 -8 3 C-8 3.66 -8 4.32 -8 5 C-8.66 5 -9.32 5 -10 5 C-10 4.34 -10 3.68 -10 3 C-12.64 3.99 -15.28 4.98 -18 6 C-18 5.01 -18 4.02 -18 3 C-20.31 3.66 -22.62 4.32 -25 5 C-22.38011575 1.07017363 -20.53755394 0.98313669 -16 0 C-12.6875 -0.125 -12.6875 -0.125 -10 0 C-7.99301585 0.09578263 -7.99301585 0.09578263 -6.125 -0.5625 C-3.63023646 -1.07612779 -2.37724361 -0.89146636 0 0 Z " fill="#E7CD4E" transform="translate(344,18)"/>
<path d="M0 0 C0.66 0 1.32 0 2 0 C2 0.66 2 1.32 2 2 C2.99 2 3.98 2 5 2 C5 2.99 5 3.98 5 5 C6.65 4.67 8.3 4.34 10 4 C10.103125 4.928125 10.20625 5.85625 10.3125 6.8125 C11.02570928 10.11919757 11.55594822 10.87473758 14 13 C14 13.66 14 14.32 14 15 C14.99 15 15.98 15 17 15 C17.3403125 16.0828125 17.3403125 16.0828125 17.6875 17.1875 C19.24831013 20.53209313 21.3031287 22.51603959 24 25 C20.19671511 23.45051356 17.79298156 20.90119755 15 18 C14.43901611 17.41742432 13.87803223 16.83484863 13.30004883 16.23461914 C11.44058828 14.29014897 9.59417936 12.33396231 7.75 10.375 C7.11320312 9.70726562 6.47640625 9.03953125 5.8203125 8.3515625 C4.91152344 7.38476562 4.91152344 7.38476562 3.984375 6.3984375 C3.43491211 5.81755371 2.88544922 5.23666992 2.31933594 4.63818359 C1 3 1 3 0 0 Z " fill="#F0DA62" transform="translate(308,186)"/>
<path d="M0 0 C0 0.66 0 1.32 0 2 C-1.2065625 2.4021875 -1.2065625 2.4021875 -2.4375 2.8125 C-3.283125 3.204375 -4.12875 3.59625 -5 4 C-5.33 4.99 -5.66 5.98 -6 7 C-8.27045229 7.33591896 -10.54137633 7.66865065 -12.8125 8 C-14.70935547 8.2784375 -14.70935547 8.2784375 -16.64453125 8.5625 C-20 9 -20 9 -23 9 C-15.98720613 4.61700383 -8.44459495 0 0 0 Z " fill="#657570" transform="translate(358,7)"/>
<path d="M0 0 C2.5859495 2.08865152 3.4376049 3.73810844 4 7 C3.01 7.495 3.01 7.495 2 8 C1.67 8.99 1.34 9.98 1 11 C-0.32 11 -1.64 11 -3 11 C-3.33 8.03 -3.66 5.06 -4 2 C-4.66 2 -5.32 2 -6 2 C-6 1.34 -6 0.68 -6 0 C-3 -1 -3 -1 0 0 Z " fill="#4A5D58" transform="translate(342,34)"/>
<path d="M0 0 C0.66 0.33 1.32 0.66 2 1 C-1 7 -1 7 -2.5625 9.75 C-7.17730818 20.18347937 -6.48740979 30.16200022 -4 41 C-4.66 41 -5.32 41 -6 41 C-7.61988753 36.0117749 -8.27190003 31.79980704 -8.25 26.5 C-8.25515625 25.2521875 -8.2603125 24.004375 -8.265625 22.71875 C-7.84622878 16.8472029 -5.89177855 11.54020862 -4 6 C-3.34 6 -2.68 6 -2 6 C-1.34 4.02 -0.68 2.04 0 0 Z " fill="#DBC533" transform="translate(323,25)"/>
<path d="M0 0 C2.89126741 0.40625473 4.01843216 0.89391864 6.109375 2.98046875 C7.59542792 4.97956375 8.96663565 6.99092065 10.25 9.125 C6.88251488 7.60552501 5.64159663 6.60399158 4.25 3.125 C1.61 3.125 -1.03 3.125 -3.75 3.125 C-4.20375 4.259375 -4.6575 5.39375 -5.125 6.5625 C-6.75 10.125 -6.75 10.125 -8.75 11.125 C-9.15729228 13.44656597 -9.49438677 15.7818787 -9.75 18.125 C-10.74 18.455 -11.73 18.785 -12.75 19.125 C-12.20829987 14.60414461 -11.04789011 11.33202308 -8.8125 7.375 C-8.28785156 6.43140625 -7.76320313 5.4878125 -7.22265625 4.515625 C-4.53407385 0.15113579 -4.53407385 0.15113579 0 0 Z " fill="#686D34" transform="translate(330.75,22.875)"/>
<path d="M0 0 C1 2 1 2 0.75 3.9375 C0 6 0 6 -1.48046875 7.24609375 C-3.62713946 9.72387048 -3.66288824 11.90482755 -4.0625 15.125 C-4.47265625 18.3828125 -4.47265625 18.3828125 -5 21 C-5.66 21.33 -6.32 21.66 -7 22 C-7.33 22.99 -7.66 23.98 -8 25 C-8.99 25.33 -9.98 25.66 -11 26 C-10.67 23.69 -10.34 21.38 -10 19 C-9.34 19 -8.68 19 -8 19 C-7.01 14.71 -6.02 10.42 -5 6 C-4.34 6 -3.68 6 -3 6 C-2.690625 5.195625 -2.38125 4.39125 -2.0625 3.5625 C-1 1 -1 1 0 0 Z " fill="#F1D557" transform="translate(299,72)"/>
<path d="M0 0 C1.65 0 3.3 0 5 0 C5.625 1.75 5.625 1.75 6 4 C5.34 5.32 4.68 6.64 4 8 C-0.62 8 -5.24 8 -10 8 C-10 7.67 -10 7.34 -10 7 C-9.05125 6.855625 -8.1025 6.71125 -7.125 6.5625 C-4.1065506 6.17064601 -4.1065506 6.17064601 -2 5 C-0.88214887 2.88214887 -0.88214887 2.88214887 0 0 Z " fill="#707F7A" transform="translate(222,292)"/>
<path d="M0 0 C1.98 0 3.96 0 6 0 C5.01 0.495 5.01 0.495 4 1 C4 1.66 4 2.32 4 3 C5.32 3.33 6.64 3.66 8 4 C7.67 5.65 7.34 7.3 7 9 C5 9 3 9 1 9 C1 8.01 1 7.02 1 6 C0.34 5.67 -0.32 5.34 -1 5 C-0.67 3.35 -0.34 1.7 0 0 Z " fill="#4F615B" transform="translate(608,254)"/>
<path d="M0 0 C1.72786328 0.00502757 3.45572798 0.00958824 5.18359375 0.01367188 C9.37243168 0.02457203 13.56119967 0.04176652 17.75 0.0625 C17.75 0.3925 17.75 0.7225 17.75 1.0625 C2.9 1.3925 -11.95 1.7225 -27.25 2.0625 C-27.58 3.0525 -27.91 4.0425 -28.25 5.0625 C-29.24 3.7425 -30.23 2.4225 -31.25 1.0625 C-20.82852858 -0.09587658 -10.46725935 -0.0533941 0 0 Z " fill="#646A33" transform="translate(367.25,19.9375)"/>
<path d="M0 0 C7.23738545 -0.12500488 14.35517422 0.22725912 21.5625 0.875 C22.55830078 0.95363281 23.55410156 1.03226563 24.58007812 1.11328125 C25.99643555 1.23896484 25.99643555 1.23896484 27.44140625 1.3671875 C28.72059937 1.47716064 28.72059937 1.47716064 30.02563477 1.58935547 C30.67717529 1.72486816 31.32871582 1.86038086 32 2 C32.495 2.99 32.495 2.99 33 4 C26.73 4 20.46 4 14 4 C14 3.67 14 3.34 14 3 C9.38 2.34 4.76 1.68 0 1 C0 0.67 0 0.34 0 0 Z " fill="#C4B644" transform="translate(352,16)"/>
<path d="M0 0 C1.65 0 3.3 0 5 0 C5.04898437 0.71027344 5.09796875 1.42054687 5.1484375 2.15234375 C5.22320312 3.07144531 5.29796875 3.99054687 5.375 4.9375 C5.44460938 5.85402344 5.51421875 6.77054688 5.5859375 7.71484375 C5.72257812 8.46894531 5.85921875 9.22304688 6 10 C6.66 10.33 7.32 10.66 8 11 C8 11.99 8 12.98 8 14 C8.66 14 9.32 14 10 14 C10.66 16.64 11.32 19.28 12 22 C9.0526386 20.0350924 8.46527009 19.43014326 6.9921875 16.4453125 C6.47205078 15.39923828 6.47205078 15.39923828 5.94140625 14.33203125 C5.41353516 13.23955078 5.41353516 13.23955078 4.875 12.125 C4.51535156 11.40441406 4.15570313 10.68382812 3.78515625 9.94140625 C2.16086673 6.63807589 0.8013267 3.60847115 0 0 Z " fill="#5C653F" transform="translate(343,52)"/>
<path d="M0 0 C1.2065625 0.0309375 1.2065625 0.0309375 2.4375 0.0625 C2.7675 1.0525 3.0975 2.0425 3.4375 3.0625 C2.4475 4.5475 2.4475 4.5475 1.4375 6.0625 C0.7775 6.0625 0.1175 6.0625 -0.5625 6.0625 C-0.5625 6.7225 -0.5625 7.3825 -0.5625 8.0625 C0.0975 8.0625 0.7575 8.0625 1.4375 8.0625 C1.4375 10.7025 1.4375 13.3425 1.4375 16.0625 C1.1075 16.0625 0.7775 16.0625 0.4375 16.0625 C0.4375 13.7525 0.4375 11.4425 0.4375 9.0625 C-0.8825 8.7325 -2.2025 8.4025 -3.5625 8.0625 C-3.60491723 5.72955225 -3.60342937 3.39547433 -3.5625 1.0625 C-2.5625 0.0625 -2.5625 0.0625 0 0 Z " fill="#738480" transform="translate(667.5625,250.9375)"/>
<path d="M0 0 C3.465 1.485 3.465 1.485 7 3 C7 3.66 7 4.32 7 5 C7.886875 5.226875 8.77375 5.45375 9.6875 5.6875 C13.43380532 7.17188513 15.33729434 9.02403485 18 12 C15.5625 11.625 15.5625 11.625 13 11 C12.67 10.34 12.34 9.68 12 9 C10.02 9 8.04 9 6 9 C5.7525 8.21625 5.505 7.4325 5.25 6.625 C3.84610901 3.67682892 2.99324263 3.0975223 0 2 C0 1.34 0 0.68 0 0 Z " fill="#EED653" transform="translate(372,43)"/>
<path d="M0 0 C2.97 0 5.94 0 9 0 C8.34 1.98 7.68 3.96 7 6 C6.34 6 5.68 6 5 6 C4.67 6.66 4.34 7.32 4 8 C2 6.25 2 6.25 0 4 C0 2.68 0 1.36 0 0 Z " fill="#516249" transform="translate(340,22)"/>
<path d="M0 0 C0.66 0 1.32 0 2 0 C4 4 6 8 8 12 C4.63983948 10.81940306 2.21075447 9.8423986 0 7 C-1.1875 4.3125 -1.1875 4.3125 -2 2 C-1.34 2 -0.68 2 0 2 C0 1.34 0 0.68 0 0 Z " fill="#D0BD3C" transform="translate(349,67)"/>
<path d="M0 0 C2.3150939 2.3150939 2.64760994 3.75265814 3.5 6.875 C4.20672812 9.44841216 4.88098121 11.76453117 6.0859375 14.1484375 C7.2553964 16.51734142 7.14475894 18.39433909 7 21 C2.17494247 16.34132377 1.15843662 10.38017746 0 4 C0 2.68 0 1.36 0 0 Z " fill="#EFD860" transform="translate(291,149)"/>
<path d="M0 0 C0.33 0 0.66 0 1 0 C1 4.62 1 9.24 1 14 C-1.64 14 -4.28 14 -7 14 C-6.6875 12.0625 -6.6875 12.0625 -6 10 C-5.01 9.67 -4.02 9.34 -3 9 C-2.67 9.66 -2.34 10.32 -2 11 C-0.33657163 9.33657163 -0.63951903 7.2174291 -0.4375 4.9375 C-0.35371094 4.01839844 -0.26992187 3.09929687 -0.18359375 2.15234375 C-0.12300781 1.44207031 -0.06242188 0.73179687 0 0 Z " fill="#687571" transform="translate(177,255)"/>
<path d="M0 0 C1.73776501 3.47553002 0.72877918 7.28135753 0 11 C-1.5625 14.5625 -1.5625 14.5625 -3 17 C-4.4206122 12.73816341 -5.10270083 8.28726155 -3.10546875 4.14453125 C-2.14239828 2.71183632 -1.07841247 1.34801559 0 0 Z " fill="#F1D240" transform="translate(422,165)"/>
<path d="M0 0 C5.14005873 4.40576463 6.18402583 9.3511094 6.6875 15.875 C6.80393311 17.91600387 6.91212085 19.95756745 7 22 C6.34 22 5.68 22 5 22 C4.95101563 21.25234375 4.90203125 20.5046875 4.8515625 19.734375 C4.77679688 18.74953125 4.70203125 17.7646875 4.625 16.75 C4.52058594 15.28820312 4.52058594 15.28820312 4.4140625 13.796875 C4.00876435 11.05920071 3.31762841 9.39568803 2 7 C1.30269194 4.6756398 0.63087848 2.34326294 0 0 Z " fill="#666B35" transform="translate(358,48)"/>
<path d="M0 0 C1.65 0.33 3.3 0.66 5 1 C5 2.65 5 4.3 5 6 C4.34 6 3.68 6 3 6 C3 6.99 3 7.98 3 9 C2.01 9 1.02 9 0 9 C-0.84454356 5.62182575 -1.10844919 3.32534757 0 0 Z " fill="#475D55" transform="translate(231,260)"/>
<path d="M0 0 C3.8461125 -0.21977786 6.55837447 0.23267878 10 2 C10.99 3.485 10.99 3.485 12 5 C12.99 5.144375 13.98 5.28875 15 5.4375 C15.99 5.623125 16.98 5.80875 18 6 C19.1875 8.03515625 19.1875 8.03515625 20 10 C15.10141877 8.5241454 11.030336 7.2242688 7 4 C4.69923076 2.89985052 2.36674248 1.95579985 0 1 C0 0.67 0 0.34 0 0 Z " fill="#646B37" transform="translate(342,83)"/>
<path d="M0 0 C0 0.33 0 0.66 0 1 C-15.74487472 1.18451025 -15.74487472 1.18451025 -23 0 C-23 -0.33 -23 -0.66 -23 -1 C-15.36744623 -2.8077101 -7.63854557 -1.16238737 0 0 Z " fill="#6B703A" transform="translate(385,17)"/>
<path d="M0 0 C0.99 0 1.98 0 3 0 C3 3 3 3 0.8125 5.6875 C-3.94527693 9.53519369 -10.24019496 8.38455672 -16 8 C-16 7.67 -16 7.34 -16 7 C-15.18015625 6.99742187 -14.3603125 6.99484375 -13.515625 6.9921875 C-10.24377442 6.87477659 -7.20501914 6.68037122 -4 6 C-1.38025574 3.11725921 -1.38025574 3.11725921 0 0 Z " fill="#9DA9A5" transform="translate(492,283)"/>
<path d="M0 0 C2.27804239 2.87928525 4.04034684 5.7830329 5.6875 9.0625 C6.12449219 9.91972656 6.56148438 10.77695312 7.01171875 11.66015625 C8 14 8 14 8 17 C7.34 15.68 6.68 14.36 6 13 C5.01 13 4.02 13 3 13 C2.49242138 11.58603098 1.99425075 10.16868271 1.5 8.75 C1.08234375 7.56664062 1.08234375 7.56664062 0.65625 6.359375 C0 4 0 4 0 0 Z M1 13 C3 14 3 14 3 14 Z " fill="#646D38" transform="translate(336,50)"/>
<path d="M0 0 C0.33 0 0.66 0 1 0 C2.01593448 6.88577812 1.83854735 13.09811029 1 20 C-0.65 20 -2.3 20 -4 20 C-2.68 19.67 -1.36 19.34 0 19 C-0.0721875 18.39671875 -0.144375 17.7934375 -0.21875 17.171875 C-0.3115625 16.37265625 -0.404375 15.5734375 -0.5 14.75 C-0.5928125 13.96109375 -0.685625 13.1721875 -0.78125 12.359375 C-1.17932196 8.06588454 -0.76649958 4.21574767 0 0 Z " fill="#9EABA7" transform="translate(706,280)"/>
<path d="M0 0 C2.31 0 4.62 0 7 0 C6.360625 0.268125 5.72125 0.53625 5.0625 0.8125 C2.66868314 1.88667752 2.66868314 1.88667752 2 5 C-0.0625 5.6875 -0.0625 5.6875 -2 6 C-2 6.66 -2 7.32 -2 8 C-2.66 7.67 -3.32 7.34 -4 7 C-2.68 4.69 -1.36 2.38 0 0 Z " fill="#6C7773" transform="translate(286,281)"/>
<path d="M0 0 C0.66 0 1.32 0 2 0 C2 0.66 2 1.32 2 2 C5.96 2 9.92 2 14 2 C13.67 2.66 13.34 3.32 13 4 C9.37 3.67 5.74 3.34 2 3 C2 5.97 2 8.94 2 12 C2.66 12.33 3.32 12.66 4 13 C3.01 13 2.02 13 1 13 C1 10.03 1 7.06 1 4 C0.34 3.67 -0.32 3.34 -1 3 C-0.67 2.01 -0.34 1.02 0 0 Z " fill="#7D8E89" transform="translate(474,258)"/>
<path d="M0 0 C3.63 0.66 7.26 1.32 11 2 C11.33 3.65 11.66 5.3 12 7 C12.66 7 13.32 7 14 7 C13.67 7.66 13.34 8.32 13 9 C12.525625 8.4225 12.05125 7.845 11.5625 7.25 C8.09260912 4.20326654 4.25300723 2.70847299 0 1 C0 0.67 0 0.34 0 0 Z " fill="#F1DB5D" transform="translate(367,229)"/>
<path d="M0 0 C0.66 0 1.32 0 2 0 C2 0.66 2 1.32 2 2 C2.99 2 3.98 2 5 2 C5 2.99 5 3.98 5 5 C6.65 4.67 8.3 4.34 10 4 C10.33 5.32 10.66 6.64 11 8 C9.68 8.33 8.36 8.66 7 9 C5.83037314 7.69013727 4.66437056 6.3770374 3.5 5.0625 C2.8503125 4.33160156 2.200625 3.60070312 1.53125 2.84765625 C0 1 0 1 0 0 Z " fill="#EFD853" transform="translate(308,186)"/>
<path d="M0 0 C0.99 0 1.98 0 3 0 C3 1.98 3 3.96 3 6 C0.69 6 -1.62 6 -4 6 C-1.125 1.125 -1.125 1.125 0 0 Z " fill="#4F5D58" transform="translate(165,293)"/>
<path d="M0 0 C0.33 0 0.66 0 1 0 C1 4.29 1 8.58 1 13 C-0.32 13.33 -1.64 13.66 -3 14 C-2.67 12.68 -2.34 11.36 -2 10 C-1.34 10 -0.68 10 0 10 C0 8.35 0 6.7 0 5 C-1.65 4.67 -3.3 4.34 -5 4 C-4.360625 3.71125 -3.72125 3.4225 -3.0625 3.125 C-0.84793921 2.17176549 -0.84793921 2.17176549 0 0 Z " fill="#6F827E" transform="translate(236,256)"/>
<path d="M0 0 C1.32 0 2.64 0 4 0 C4 0.99 4 1.98 4 3 C3.34 3 2.68 3 2 3 C2.33 4.32 2.66 5.64 3 7 C1.68 7 0.36 7 -1 7 C-1.04254356 5.00045254 -1.04080783 2.99958364 -1 1 C-0.67 0.67 -0.34 0.34 0 0 Z " fill="#77827F" transform="translate(312,292)"/>
<path d="M0 0 C0.66 1.32 1.32 2.64 2 4 C-3.53754923 6.55579195 -7.38963576 5.62077189 -13 4 C-12.67 3.34 -12.34 2.68 -12 2 C-8.37 2 -4.74 2 -1 2 C-0.67 1.34 -0.34 0.68 0 0 Z " fill="#A6B1AE" transform="translate(341,287)"/>
<path d="M0 0 C1.76923828 0.01353516 1.76923828 0.01353516 3.57421875 0.02734375 C4.47785156 0.03894531 5.38148438 0.05054688 6.3125 0.0625 C6.3125 0.3925 6.3125 0.7225 6.3125 1.0625 C5.53003906 1.11148438 4.74757813 1.16046875 3.94140625 1.2109375 C2.92949219 1.28570312 1.91757812 1.36046875 0.875 1.4375 C-0.13433594 1.50710937 -1.14367187 1.57671875 -2.18359375 1.6484375 C-3.00988281 1.78507813 -3.83617187 1.92171875 -4.6875 2.0625 C-5.0175 2.7225 -5.3475 3.3825 -5.6875 4.0625 C-8.6575 3.5675 -8.6575 3.5675 -11.6875 3.0625 C-8.16050276 -0.46449724 -4.75191609 -0.04704867 0 0 Z M-9.6875 4.0625 C-9.0275 4.0625 -8.3675 4.0625 -7.6875 4.0625 C-7.6875 4.7225 -7.6875 5.3825 -7.6875 6.0625 C-8.3475 6.0625 -9.0075 6.0625 -9.6875 6.0625 C-9.6875 5.4025 -9.6875 4.7425 -9.6875 4.0625 Z " fill="#83918D" transform="translate(621.6875,250.9375)"/>
<path d="M0 0 C0.33 0.99 0.66 1.98 1 3 C-2.63 3.33 -6.26 3.66 -10 4 C-10.66 3.01 -11.32 2.02 -12 1 C-10.95199219 1.01740234 -10.95199219 1.01740234 -9.8828125 1.03515625 C-8.97273438 1.04417969 -8.06265625 1.05320313 -7.125 1.0625 C-5.76761719 1.07990234 -5.76761719 1.07990234 -4.3828125 1.09765625 C-1.9831415 1.16249257 -1.9831415 1.16249257 0 0 Z " fill="#F1D862" transform="translate(398,240)"/>
<path d="M0 0 C1.49828872 3.88235819 0.43110582 6.43449288 -0.9375 10.25 C-1.31777344 11.32765625 -1.69804687 12.4053125 -2.08984375 13.515625 C-2.39019531 14.33546875 -2.69054687 15.1553125 -3 16 C-3.33 16 -3.66 16 -4 16 C-4 13.69 -4 11.38 -4 9 C-3.34 9 -2.68 9 -2 9 C-2.04125 8.071875 -2.0825 7.14375 -2.125 6.1875 C-2 3 -2 3 0 0 Z " fill="#EED656" transform="translate(417,183)"/>
<path d="M0 0 C7.48291572 6.15034169 7.48291572 6.15034169 10 10 C8.68 10.33 7.36 10.66 6 11 C6 10.01 6 9.02 6 8 C5.01 8 4.02 8 3 8 C3 7.01 3 6.02 3 5 C2.01 4.67 1.02 4.34 0 4 C0 2.68 0 1.36 0 0 Z " fill="#5D6740" transform="translate(342,32)"/>
<path d="M0 0 C0 0.66 0 1.32 0 2 C0.99 1.67 1.98 1.34 3 1 C4.37562854 2.28965176 5.70766393 3.62689293 7 5 C7 5.66 7 6.32 7 7 C4.5625 6.625 4.5625 6.625 2 6 C1.67 5.34 1.34 4.68 1 4 C-1.3140622 3.26924352 -3.64828869 2.59861742 -6 2 C-2.25 0 -2.25 0 0 0 Z " fill="#DAC234" transform="translate(334,21)"/>
<path d="M0 0 C1.32 0.99 2.64 1.98 4 3 C0.04 3 -3.92 3 -8 3 C-8 2.01 -8 1.02 -8 0 C-4.94073669 -0.98333463 -3.02541902 -1.13453213 0 0 Z " fill="#C0B346" transform="translate(344,18)"/>
<path d="M0 0 C5.75 -0.125 5.75 -0.125 8 1 C7.67 3.31 7.34 5.62 7 8 C5 6.625 5 6.625 3 5 C3 4.34 3 3.68 3 3 C3.66 3 4.32 3 5 3 C5 2.34 5 1.68 5 1 C3.35 1 1.7 1 0 1 C0 0.67 0 0.34 0 0 Z " fill="#899491" transform="translate(336,270)"/>
<path d="M0 0 C0.5775 0.763125 1.155 1.52625 1.75 2.3125 C3.81225336 5.00399461 3.81225336 5.00399461 6.1875 6.5625 C8.33620437 8.26664484 8.63216384 9.33318782 9 12 C8.34 12 7.68 12 7 12 C6.67 11.34 6.34 10.68 6 10 C5.360625 9.71125 4.72125 9.4225 4.0625 9.125 C1.51553717 7.73574754 0.95572581 6.70788979 0 4 C0 2.68 0 1.36 0 0 Z " fill="#F0DB69" transform="translate(399,63)"/>
<path d="M0 0 C0.33 0.66 0.66 1.32 1 2 C1.66 2 2.32 2 3 2 C3 2.99 3 3.98 3 5 C3.99 5 4.98 5 6 5 C6.66 7.64 7.32 10.28 8 13 C4.72653393 9.90347804 2.02490044 7.04980088 0 3 C0 2.01 0 1.02 0 0 Z " fill="#606536" transform="translate(318,61)"/>
<path d="M0 0 C1.98 0 3.96 0 6 0 C6 0.99 6 1.98 6 3 C6.66 3.33 7.32 3.66 8 4 C6.02 4.99 6.02 4.99 4 6 C4 5.34 4 4.68 4 4 C2.68 3.67 1.36 3.34 0 3 C0 2.01 0 1.02 0 0 Z " fill="#F4CC19" transform="translate(349,35)"/>
<path d="M0 0 C1.45922693 0.11409593 2.91740598 0.24165544 4.375 0.375 C5.59316406 0.47941406 5.59316406 0.47941406 6.8359375 0.5859375 C9 1 9 1 11 3 C9.02 3 7.04 3 5 3 C4.67 3.99 4.34 4.98 4 6 C2.68 4.02 1.36 2.04 0 0 Z " fill="#DEC531" transform="translate(344,32)"/>
<path d="M0 0 C3 1 3 1 5 4 C5.125 7.1875 5.125 7.1875 5 10 C4.34 10 3.68 10 3 10 C3 8.68 3 7.36 3 6 C2.01 5.67 1.02 5.34 0 5 C0 3.35 0 1.7 0 0 Z " fill="#6E7A77" transform="translate(400,15)"/>
<path d="M0 0 C6.20988129 0.44356295 10.60540561 1.91532502 16 5 C13.13421241 6.16161779 11.98369837 5.9946154 8.984375 5.00390625 C7.91703125 4.52824219 6.8496875 4.05257812 5.75 3.5625 C4.67234375 3.08941406 3.5946875 2.61632812 2.484375 2.12890625 C1.66453125 1.75636719 0.8446875 1.38382813 0 1 C0 0.67 0 0.34 0 0 Z " fill="#EFD758" transform="translate(342,220)"/>
<path d="M0 0 C5.57142857 5.14285714 5.57142857 5.14285714 6 9 C5.01 9.33 4.02 9.66 3 10 C2.49596232 8.70990357 1.99690074 7.41786211 1.5 6.125 C1.2215625 5.40570313 0.943125 4.68640625 0.65625 3.9453125 C0 2 0 2 0 0 Z " fill="#CABC46" transform="translate(330,33)"/>
<path d="M0 0 C1.65 0.33 3.3 0.66 5 1 C4.67 2.65 4.34 4.3 4 6 C3.67 5.34 3.34 4.68 3 4 C2.01 4.33 1.02 4.66 0 5 C-0.33 4.34 -0.66 3.68 -1 3 C-0.67 2.01 -0.34 1.02 0 0 Z " fill="#5C6E68" transform="translate(495,283)"/>
<path d="M0 0 C6.75 1.625 6.75 1.625 9 5 C6.36 5 3.72 5 1 5 C0.67 3.35 0.34 1.7 0 0 Z " fill="#DFC52D" transform="translate(344,85)"/>
<path d="M0 0 C0.66 0 1.32 0 2 0 C2 0.99 2 1.98 2 3 C2.66 3 3.32 3 4 3 C4.33 4.98 4.66 6.96 5 9 C2.5 6.75 2.5 6.75 0 4 C0 2.68 0 1.36 0 0 Z " fill="#EFD656" transform="translate(299,169)"/>
<path d="M0 0 C1.32 0.33 2.64 0.66 4 1 C4.33 2.32 4.66 3.64 5 5 C4.34 5 3.68 5 3 5 C2.67 5.99 2.34 6.98 2 8 C0.23537317 4.91190305 0 3.76687864 0 0 Z " fill="#DDC433" transform="translate(334,42)"/>
<path d="M0 0 C1.98 1.65 3.96 3.3 6 5 C3.04335481 6.4783226 0.25770263 6.06032783 -3 6 C-2.01 4.02 -1.02 2.04 0 0 Z " fill="#596542" transform="translate(352,42)"/>
<path d="M0 0 C0.99 0.33 1.98 0.66 3 1 C3.33 2.65 3.66 4.3 4 6 C3.01 6.33 2.02 6.66 1 7 C0.87625 6.195625 0.7525 5.39125 0.625 4.5625 C0.315625 3.2940625 0.315625 3.2940625 0 2 C-0.66 1.67 -1.32 1.34 -2 1 C-1.34 0.67 -0.68 0.34 0 0 Z " fill="#495D56" transform="translate(626,291)"/>
<path d="M0 0 C1.66611905 -0.042721 3.33382885 -0.04063832 5 0 C6 1 6 1 6.0625 3.5625 C6.041875 4.366875 6.02125 5.17125 6 6 C5.566875 5.525625 5.13375 5.05125 4.6875 4.5625 C2.97690387 2.76313043 2.97690387 2.76313043 0 2 C0 1.34 0 0.68 0 0 Z " fill="#4C5C57" transform="translate(344,283)"/>
<path d="M0 0 C3.3 0.99 6.6 1.98 10 3 C6 5 6 5 4 5 C4 4.34 4 3.68 4 3 C3.01 3 2.02 3 1 3 C0.67 2.01 0.34 1.02 0 0 Z " fill="#6F7C78" transform="translate(379,8)"/>
<path d="M0 0 C2.475 0.99 2.475 0.99 5 2 C5 2.99 5 3.98 5 5 C4.34 4.67 3.68 4.34 3 4 C2.67 5.32 2.34 6.64 2 8 C1.34 5.36 0.68 2.72 0 0 Z " fill="#DFC330" transform="translate(341,56)"/>
<path d="M0 0 C0.66 0.99 1.32 1.98 2 3 C1.34 3 0.68 3 0 3 C0.061875 4.1446875 0.061875 4.1446875 0.125 5.3125 C0 8 0 8 -2 11 C-2.66 10.67 -3.32 10.34 -4 10 C-2.68 6.7 -1.36 3.4 0 0 Z " fill="#8A9793" transform="translate(553,267)"/>
<path d="M0 0 C2 1 2 1 3.1875 3.3125 C4.03624754 6.11989571 3.99928333 7.301935 3 10 C3 9.34 3 8.68 3 8 C2.34 8 1.68 8 1 8 C0.67 5.36 0.34 2.72 0 0 Z " fill="#EED553" transform="translate(418,96)"/>
<path d="M0 0 C0.66 0 1.32 0 2 0 C1.34 1.98 0.68 3.96 0 6 C-1.32 6 -2.64 6 -4 6 C-3.34 4.68 -2.68 3.36 -2 2 C-1.34 2 -0.68 2 0 2 C0 1.34 0 0.68 0 0 Z " fill="#EFDA65" transform="translate(317,23)"/>
<path d="M0 0 C2.475 0.495 2.475 0.495 5 1 C5 2.32 5 3.64 5 5 C3.68 4.67 2.36 4.34 1 4 C0.67 2.68 0.34 1.36 0 0 Z " fill="#78827E" transform="translate(489,264)"/>
<path d="M0 0 C0.33 0 0.66 0 1 0 C1.1875 2.375 1.1875 2.375 1 5 C-2 7 -2 7 -4.1875 6.625 C-4.785625 6.41875 -5.38375 6.2125 -6 6 C-5.01 6 -4.02 6 -3 6 C-2.690625 5.38125 -2.38125 4.7625 -2.0625 4.125 C-1.375 2.75 -0.6875 1.375 0 0 Z " fill="#7D8A87" transform="translate(349,262)"/>
<path d="M0 0 C3.03869411 1.51934706 3.64410306 3.98004772 5 7 C5 7.66 5 8.32 5 9 C2 8 2 8 0.8125 6.1875 C0 4 0 4 0 0 Z " fill="#F0D968" transform="translate(411,80)"/>
<path d="M0 0 C1.65 0 3.3 0 5 0 C5.33 0.66 5.66 1.32 6 2 C5.67 2.66 5.34 3.32 5 4 C4.01 4 3.02 4 2 4 C2 3.34 2 2.68 2 2 C1.34 2 0.68 2 0 2 C0 1.34 0 0.68 0 0 Z " fill="#59654E" transform="translate(354,78)"/>
<path d="M0 0 C2.66666667 1.33333333 5.33333333 2.66666667 8 4 C5.69 4.33 3.38 4.66 1 5 C0.67 3.35 0.34 1.7 0 0 Z " fill="#637269" transform="translate(376,32)"/>
<path d="M0 0 C0.99 1.32 1.98 2.64 3 4 C2.01 5.485 2.01 5.485 1 7 C-0.0625 4.625 -0.0625 4.625 -1 2 C-0.67 1.34 -0.34 0.68 0 0 Z M-2 5 C-1.34 5 -0.68 5 0 5 C0 5.66 0 6.32 0 7 C-0.66 7 -1.32 7 -2 7 C-2 6.34 -2 5.68 -2 5 Z " fill="#465B54" transform="translate(220,290)"/>
<path d="M0 0 C-0.60183749 2.02045442 -1.27306096 4.02111039 -2 6 C-2.99 6.495 -2.99 6.495 -4 7 C-4 5.02 -4 3.04 -4 1 C-2 0 -2 0 0 0 Z " fill="#F0D75B" transform="translate(413,200)"/>
</svg>
